<svg xmlns="http://www.w3.org/2000/svg" viewBox="0 0 900 360" role="img" aria-label="Governance by construction: the hub propagates policies to the spokes in one direction; spokes cannot alter it">
  <defs>
    <filter id="sh3" x="-20%" y="-20%" width="140%" height="140%"><feDropShadow dx="0" dy="1.5" stdDeviation="3" flood-color="#1b2a3a" flood-opacity="0.07"/></filter>
    <marker id="inhF" viewBox="0 0 8 8" refX="4" refY="6.5" markerWidth="7.5" markerHeight="7.5" orient="auto"><path d="M0 0 L4 6.5 L8 0 Z" fill="#14564A"/></marker>
  </defs>
  <g font-family="-apple-system,BlinkMacSystemFont,'Segoe UI',Inter,Roboto,Helvetica,Arial,sans-serif">
    <rect x="1" y="1" width="898" height="358" rx="16" fill="#FCFDFE" stroke="#E8EBEE"/>

    <rect x="240" y="40" width="420" height="92" rx="12" fill="#ECF3F0" stroke="#A9CDC0" filter="url(#sh3)"/>
    <rect x="240" y="40" width="420" height="4" rx="2" fill="#14564A"/>
    <g stroke="#14564A" stroke-width="1.3" stroke-linecap="round">
      <line x1="276" y1="74" x2="276" y2="62"/><line x1="276" y1="74" x2="288" y2="74"/><line x1="276" y1="74" x2="276" y2="86"/><line x1="276" y1="74" x2="264" y2="74"/>
    </g>
    <g fill="#14564A"><circle cx="276" cy="74" r="3.6"/><circle cx="276" cy="62" r="2.2"/><circle cx="288" cy="74" r="2.2"/><circle cx="276" cy="86" r="2.2"/><circle cx="264" cy="74" r="2.2"/></g>
    <text x="306" y="80" font-size="19" font-weight="700" fill="#0E3F37">HUB</text>
    <text x="356" y="80" font-size="11.5" fill="#3A4655">certified definitions and policies</text>
    <text x="306" y="104" font-size="10.5" fill="#6B7480">repository with restricted PRs</text>

    <line x1="40" y1="168" x2="860" y2="168" stroke="#C2C9D2" stroke-width="1.2" stroke-dasharray="2 5" stroke-linecap="round"/>

    <path d="M408 132 L284 210" fill="none" stroke="#14564A" stroke-width="2" marker-end="url(#inhF)"/>
    <path d="M492 132 L616 210" fill="none" stroke="#14564A" stroke-width="2" marker-end="url(#inhF)"/>
    <text x="246" y="186" font-size="9.5" font-weight="600" letter-spacing="1" text-anchor="middle" fill="#14564A">INHERITS</text>
    <text x="654" y="186" font-size="9.5" font-weight="600" letter-spacing="1" text-anchor="middle" fill="#14564A">INHERITS</text>

    <path d="M400 212 L400 176" fill="none" stroke="#B14A40" stroke-width="1.6" stroke-dasharray="4 4"/>
    <path d="M500 212 L500 176" fill="none" stroke="#B14A40" stroke-width="1.6" stroke-dasharray="4 4"/>
    <g stroke="#B14A40" stroke-width="1.5" fill="none">
      <circle cx="400" cy="169" r="5.5"/><line x1="396.1" y1="165.1" x2="403.9" y2="172.9"/>
      <circle cx="500" cy="169" r="5.5"/><line x1="496.1" y1="165.1" x2="503.9" y2="172.9"/>
    </g>
    <text x="450" y="200" font-size="10.5" text-anchor="middle" fill="#B14A40">cannot alter the hub</text>

    <rect x="120" y="216" width="300" height="96" rx="12" fill="#EEF1F7" stroke="#D3DBE8" filter="url(#sh3)"/>
    <text x="270" y="270" font-size="14.5" font-weight="600" text-anchor="middle" fill="#2A3C5E">Spoke &#183; Marketing</text>

    <rect x="480" y="216" width="300" height="96" rx="12" fill="#EEF1F7" stroke="#D3DBE8" filter="url(#sh3)"/>
    <text x="630" y="270" font-size="14.5" font-weight="600" text-anchor="middle" fill="#2A3C5E">Spoke &#183; Operations</text>
  </g>
</svg>
